<?xml version="1.0" encoding="UTF-8" standalone="no"?>
<!DOCTYPE svg PUBLIC "-//W3C//DTD SVG 1.1//EN" "http://www.w3.org/Graphics/SVG/1.1/DTD/svg11.dtd">
<svg width="100%" height="100%" viewBox="0 0 24 24" version="1.1" xmlns="http://www.w3.org/2000/svg" xmlns:xlink="http://www.w3.org/1999/xlink" xml:space="preserve" xmlns:serif="http://www.serif.com/" style="fill-rule:evenodd;clip-rule:evenodd;stroke-linecap:round;stroke-linejoin:round;stroke-miterlimit:1.5;">
    <g transform="matrix(0.0413924,0,0,0.0413924,-83.9013,-46.4426)">
        <g transform="matrix(1,0,0,1,-1.34661,5.15386)">
            <g transform="matrix(1.57116,0,-4.27991e-16,1.57116,1810.91,664.521)">
                <path d="M192.202,518.42L388.304,631.451L439.851,601.69L364.121,558.04L451.874,507.376L407.233,481.645L319.48,532.309L288.39,514.39L389.644,455.931L345.002,430.201L192.202,518.42Z" style="fill:none;stroke:rgb(50,156,252);stroke-width:0.64px;"/>
            </g>
            <g transform="matrix(0.719051,-0.415144,0.686735,0.394106,-195.497,2412.13)">
                <rect x="2724" y="500" width="9" height="9" style="fill:white;stroke:rgb(50,156,252);stroke-width:1.01px;"/>
            </g>
            <g transform="matrix(0.719051,-0.415144,0.686735,0.394106,112.446,2590.53)">
                <rect x="2724" y="500" width="9" height="9" style="fill:white;stroke:rgb(50,156,252);stroke-width:1.01px;"/>
            </g>
            <g transform="matrix(0.719051,-0.415144,0.686735,0.394106,193.619,2544.14)">
                <rect x="2724" y="500" width="9" height="9" style="fill:white;stroke:rgb(50,156,252);stroke-width:1.01px;"/>
            </g>
            <g transform="matrix(0.719051,-0.415144,0.686735,0.394106,212.489,2395.97)">
                <rect x="2724" y="500" width="9" height="9" style="fill:white;stroke:rgb(50,156,252);stroke-width:1.01px;"/>
            </g>
            <g transform="matrix(0.719051,-0.415144,0.686735,0.394106,75.9119,2474.56)">
                <rect x="2724" y="500" width="9" height="9" style="fill:white;stroke:rgb(50,156,252);stroke-width:1.01px;"/>
            </g>
            <g transform="matrix(0.719051,-0.415144,0.686735,0.394106,5.04637,2434.62)">
                <rect x="2724" y="500" width="9" height="9" style="fill:white;stroke:rgb(50,156,252);stroke-width:1.01px;"/>
            </g>
            <g transform="matrix(0.719051,-0.415144,0.686735,0.394106,142.912,2354.74)">
                <rect x="2724" y="500" width="9" height="9" style="fill:white;stroke:rgb(50,156,252);stroke-width:1.01px;"/>
            </g>
            <g transform="matrix(0.719051,-0.415144,0.686735,0.394106,112.925,2314.79)">
                <rect x="2724" y="500" width="9" height="9" style="fill:white;stroke:rgb(50,156,252);stroke-width:1.01px;"/>
            </g>
            <g transform="matrix(0.719051,-0.415144,0.686735,0.394106,44.6366,2274.33)">
                <rect x="2724" y="500" width="9" height="9" style="fill:white;stroke:rgb(50,156,252);stroke-width:1.01px;"/>
            </g>
            <g transform="matrix(0.49569,-0.286187,3.27366,1.89078,-1268.78,1254.36)">
                <rect x="3045" y="580.681" width="110" height="51.319" style="fill:rgb(50,156,252);fill-opacity:0.35;"/>
            </g>
            <g transform="matrix(0.49569,0.286187,2.30966,-1.334,-522.092,1403.67)">
                <rect x="3045" y="580.681" width="110" height="51.319" style="fill:rgb(50,156,252);fill-opacity:0.35;"/>
            </g>
            <g transform="matrix(-0.49569,0.286187,-0.831128,-0.480038,4296.9,841.064)">
                <rect x="3045" y="580.681" width="110" height="51.319" style="fill:rgb(50,156,252);fill-opacity:0.35;"/>
            </g>
            <g transform="matrix(-0.356691,0.205936,-0.831128,-0.480038,3921.89,1057.58)">
                <rect x="3045" y="580.681" width="110" height="51.319" style="fill:rgb(50,156,252);fill-opacity:0.35;"/>
            </g>
            <g transform="matrix(-0.356691,0.205936,-0.831128,-0.480038,3967.75,1031.1)">
                <rect x="3045" y="580.681" width="110" height="51.319" style="fill:rgb(50,156,252);fill-opacity:0.35;"/>
            </g>
            <g transform="matrix(0.49569,-0.286187,1.54255,0.890938,-70.7415,1946.29)">
                <rect x="3045" y="580.681" width="110" height="51.319" style="fill:rgb(50,156,252);fill-opacity:0.35;"/>
            </g>
        </g>
        <g transform="matrix(1,0,0,1,8.01578,-29.1139)">
            <g transform="matrix(1.63025,0,-4.44089e-16,1.63025,1783.86,579.064)">
                <path d="M192.202,518.42L388.304,631.451L439.851,601.69L364.121,558.04L451.874,507.376L407.233,481.645L319.48,532.309L288.39,514.39L389.644,455.931L345.002,430.201L192.202,518.42Z" style="fill:rgb(50,156,252);"/>
            </g>
            <g transform="matrix(1.11941,-0.646293,0.969439,0.560411,-1143.04,2943.3)">
                <path d="M2671,468.258L2786,468.258C2791.8,468.258 2796.5,472.963 2796.5,478.758C2796.5,484.553 2791.8,489.258 2786,489.258L2671,489.258L2672.56,583.959C2678.54,587.54 2682.56,594.088 2682.56,601.566C2682.56,612.88 2673.37,622.066 2662.06,622.066C2650.74,622.066 2641.56,612.88 2641.56,601.566C2641.56,594.088 2645.57,587.54 2651.56,583.959L2650,348.258C2650,345.503 2651.06,342.995 2652.8,341.121L2652.82,341.102C2654.74,339.045 2657.47,337.758 2660.5,337.758L2794.39,337.758C2797.97,331.77 2804.52,327.758 2812,327.758C2823.31,327.758 2832.5,336.944 2832.5,348.258C2832.5,359.572 2823.31,368.758 2812,368.758C2804.52,368.758 2797.97,364.746 2794.39,358.758L2671,358.758L2671,468.258Z" style="fill:white;"/>
            </g>
        </g>
        <g transform="matrix(1.00042,-0.577591,0.866386,0.499375,663.684,830.886)">
            <g transform="matrix(1,0,0,5.8125,-1019.5,-5708.72)">
                <rect x="1331" y="1222" width="84" height="48" style="fill:rgb(252,129,50);"/>
            </g>
            <g transform="matrix(6.12323e-17,1,-5.1875,3.17643e-16,6899.62,-26.8425)">
                <rect x="1331" y="1222" width="84" height="48" style="fill:rgb(252,129,50);"/>
            </g>
            <g transform="matrix(6.12323e-17,1,-2.85417,1.74767e-16,4026.29,115.657)">
                <rect x="1331" y="1222" width="84" height="48" style="fill:rgb(252,129,50);"/>
            </g>
        </g>
    </g>
</svg>
